<?xml version="1.0" encoding="UTF-8" standalone="no"?>
<!-- Created with Inkscape (http://www.inkscape.org/) -->

<svg
   width="278.17047mm"
   height="229.08153mm"
   viewBox="0 0 278.17047 229.08153"
   version="1.1"
   id="svg1"
   xml:space="preserve"
   sodipodi:docname="logo.svg"
   inkscape:version="1.4.4 (dcaf3e7, 2026-05-05)"
   xmlns:inkscape="http://www.inkscape.org/namespaces/inkscape"
   xmlns:sodipodi="http://sodipodi.sourceforge.net/DTD/sodipodi-0.dtd"
   xmlns:xlink="http://www.w3.org/1999/xlink"
   xmlns="http://www.w3.org/2000/svg"
   xmlns:svg="http://www.w3.org/2000/svg"><sodipodi:namedview
     id="namedview1"
     pagecolor="#ffffff"
     bordercolor="#000000"
     borderopacity="0.25"
     inkscape:showpageshadow="2"
     inkscape:pageopacity="0.0"
     inkscape:pagecheckerboard="0"
     inkscape:deskcolor="#d1d1d1"
     inkscape:document-units="mm"
     inkscape:zoom="0.41850838"
     inkscape:cx="255.66991"
     inkscape:cy="609.3068"
     inkscape:window-width="1920"
     inkscape:window-height="969"
     inkscape:window-x="1920"
     inkscape:window-y="30"
     inkscape:window-maximized="1"
     inkscape:current-layer="layer1"><inkscape:page
       x="0"
       y="0"
       width="278.17047"
       height="229.08153"
       id="page2"
       margin="0"
       bleed="0" /></sodipodi:namedview><defs
     id="defs1"><linearGradient
       id="linearGradient1"
       inkscape:collect="always"><stop
         style="stop-color:#fda7f0;stop-opacity:0.99607843;"
         offset="0"
         id="stop1" /><stop
         style="stop-color:#8fb7fe;stop-opacity:0.99607843;"
         offset="1"
         id="stop2" /></linearGradient><linearGradient
       inkscape:collect="always"
       xlink:href="#linearGradient1"
       id="linearGradient11"
       gradientUnits="userSpaceOnUse"
       x1="4"
       y1="6.5"
       x2="21"
       y2="17.312412"
       gradientTransform="matrix(16.362966,0,0,16.362966,-1258.6211,-547.10552)" /></defs><g
     inkscape:label="Layer 1"
     inkscape:groupmode="layer"
     id="layer1"
     transform="translate(1193.1692,465.29071)"><path
       id="path1"
       style="fill:url(#linearGradient11);stroke-width:16.363"
       d="M -1168.625 -465.29071 C -1182.2062 -465.29071 -1193.1692 -454.32773 -1193.1692 -440.74647 C -1193.1692 -427.16521 -1182.2062 -416.20172 -1168.625 -416.20172 L -939.54334 -416.20172 C -925.96208 -416.20172 -914.99858 -427.16521 -914.99858 -440.74647 C -914.99858 -454.32773 -925.96208 -465.29071 -939.54334 -465.29071 L -1168.625 -465.29071 z M -1168.625 -375.29414 C -1182.2062 -375.29414 -1193.1692 -364.33116 -1193.1692 -350.7499 C -1193.1692 -337.16864 -1182.2062 -326.20566 -1168.625 -326.20566 L -1021.358 -326.20566 C -1007.7767 -326.20566 -996.81374 -337.16864 -996.81374 -350.7499 C -996.81374 -364.33116 -1007.7767 -375.29414 -1021.358 -375.29414 L -1168.625 -375.29414 z M -1168.625 -285.29808 C -1182.2062 -285.29808 -1193.1692 -274.33511 -1193.1692 -260.75384 C -1193.1692 -247.17258 -1182.2062 -236.20909 -1168.625 -236.20909 L -1070.447 -236.20909 C -1056.8657 -236.20909 -1045.9027 -247.17258 -1045.9027 -260.75384 C -1045.9027 -274.33511 -1056.8657 -285.29808 -1070.447 -285.29808 L -1168.625 -285.29808 z " /></g></svg>
